<?xml version="1.0" encoding="utf-8"?>
<!-- Generator: Adobe Illustrator 24.1.0, SVG Export Plug-In . SVG Version: 6.00 Build 0)  -->
<svg version="1.1" id="Primo_piano" xmlns="http://www.w3.org/2000/svg" xmlns:xlink="http://www.w3.org/1999/xlink" x="0px"
	 y="0px" viewBox="0 0 475.7 261" style="enable-background:new 0 0 475.7 261;" xml:space="preserve">
<style type="text/css">
	.st0{fill:#00A651;}
	.st1{fill:#12264A;}
	.st2{fill:#FFFFFF;}
</style>
<symbol  id="Bush_Left" viewBox="-43.3 -24.3 86.6 48.6">
	<g>
		<g>
			<path class="st0" d="M-33.9-3.5C-25.6,5.4-20.7,18-20.7,18C-24.1,7.5-28.2,2.3-34.9-6.2L-33.9-3.5z"/>
			<path class="st0" d="M-30.5,3.2c0.3,2.3,2.4,11.4,2.4,11.4L-30.3,9c-0.5-2.9,0.8-5.6,0.4-8L-30.5,3.2z"/>
			<path class="st0" d="M-27.7,8.6c0.3,2.3,1.7,9.8,1.7,9.8l-0.5-3.8c0-2.4-0.2-5.7-0.5-8.1L-27.7,8.6z"/>
			<path class="st0" d="M-24.2,13.4c0.2,1.4,3.1,6.6,3.1,6.6l-2.2-2.9c0-1.5-0.2-3.5-0.4-5L-24.2,13.4z"/>
			<path class="st0" d="M-21.2,18.1c0.6,1.2,2.8,6.2,2.8,6.2l-1.3-3.5c-0.3-1.3-1-3-1.6-4.3L-21.2,18.1z"/>
			<path class="st0" d="M-26,10.3c0.3,2.3,1.7,9.8,1.7,9.8l-1.2-4.8c0-2.4,0.4-4.7,0.1-7.1L-26,10.3z"/>
			<path class="st0" d="M-24.5,3.5c1.4,0.9,6.5,3.4,6.5,3.4l-3.3-2.2c-1.8-1.2-5.3-0.6-6.8-1.5L-24.5,3.5z"/>
			<path class="st0" d="M-21.9,6.9c1.9,1.3,6.1,5.1,6.1,5.1l-3.2-2.1c-2.2-1.1-5.1-2.7-7.1-4L-21.9,6.9z"/>
			<path class="st0" d="M-21.8,13.1c1,0.9,3.9,6.2,3.9,6.2l-1.3-3.4c-1.2-0.8-2.8-2-3.9-3L-21.8,13.1z"/>
			<path class="st0" d="M-23.3,9.5c1.6,1,6,5.9,6,5.9l-2.6-3.9c-1.8-0.9-3.5-1.2-5.1-2.2L-23.3,9.5z"/>
			<path class="st0" d="M-33,0.4c0.3,2.3,1.6,12.7,1.6,12.7l-1.4-6.9c-0.5-2.9,0.8-5.6,0.4-8L-33,0.4z"/>
			<path class="st0" d="M-35-1.3c0.3,2.3,1.6,12.7,1.6,12.7l-1.4-6.9c-0.5-2.9,0.8-5.6,0.4-8L-35-1.3z"/>
			<path class="st0" d="M-29.4-0.6c1.5,0.6,10.2,4.3,10.2,4.3L-24,0.6c-1.9-0.8-5.4-0.5-7-1.1L-29.4-0.6z"/>
			<path class="st0" d="M-30-3.3c1.7,0.7,9.7,4.1,9.7,4.1L-25.4-2C-27.5-3-30-2.2-31.8-3L-30-3.3z"/>
		</g>
		<g>
			<path class="st0" d="M-41.1-9.8c17.3-2.8,35.8-10.6,35.8-10.6c-13.5,6.7-22.8,8.7-38,12.1L-41.1-9.8z"/>
			<path class="st0" d="M-29.9-13.6c2.4-1.7,13.1-8,13.1-8l-7.5,3.4c-3.2,2.1-4.2,4.9-6.8,6.7L-29.9-13.6z"/>
			<path class="st0" d="M-21.8-16.4c2.4-1.7,10.9-7,10.9-7l-4.1,2.8c-2.2,2-5.5,4.5-8,6.3L-21.8-16.4z"/>
			<path class="st0" d="M-13.5-18.5c1.5-1,9.4-3.7,9.4-3.7L-9.2-21c-1.4,1.2-3.4,2.8-5,3.8L-13.5-18.5z"/>
			<path class="st0" d="M-5.9-20.7c1.7-0.6,8.8-3.6,8.8-3.6l-4.6,2.2c-1.5,0.9-3.8,1.9-5.7,2.6L-5.9-20.7z"/>
			<path class="st0" d="M-18.4-17c2.4-1.7,10.9-7,10.9-7l-5.7,3.3c-2.2,2-3.8,4-6.4,5.8L-18.4-17z"/>
			<path class="st0" d="M-22.9-10.7c2.4,0,10.3,0.7,10.3,0.7l-5.7,0c-3,0-6.5-2.3-9-2.3L-22.9-10.7z"/>
			<path class="st0" d="M-16.9-12c3.3,0,11.4-0.9,11.4-0.9l-5.5,0.1c-3.4-0.3-8.1-0.5-11.5-0.4L-16.9-12z"/>
			<path class="st0" d="M-11.2-17c2-0.2,9.9-3,9.9-3l-4.5,2.1c-2.1,0-5,0.2-7.1,0.4L-11.2-17z"/>
			<path class="st0" d="M-16.1-14.9c2.7,0,12-1.6,12-1.6l-6.5,1.8c-2.8-0.3-4.9-0.9-7.7-0.9L-16.1-14.9z"/>
			<path class="st0" d="M-35.2-12.6c2.4-1.7,13.4-9.5,13.4-9.5l-7.8,4.8c-3.2,2.1-4.2,4.9-6.8,6.7L-35.2-12.6z"/>
			<path class="st0" d="M-38.9-12.3c2.4-1.7,13.4-9.5,13.4-9.5l-7.8,4.8c-3.2,2.1-4.2,4.9-6.8,6.7L-38.9-12.3z"/>
			<path class="st0" d="M-32-10c2.3,0.3,15.2,1.9,15.2,1.9l-8.2,0c-2.9-0.3-6.4-2.5-8.8-2.8L-32-10z"/>
			<path class="st0" d="M-35.2-8c2.6,0.3,14.5,1.8,14.5,1.8l-8.2-0.5C-32.2-7-34.2-8.9-37-9.2L-35.2-8z"/>
		</g>
		<g>
			<path class="st0" d="M-20-4.8c13.5-2,27.7-7.1,27.7-7.1C-2.8-7.2-10-5.7-21.9-3.3L-20-4.8z"/>
			<path class="st0" d="M-11.4-7c1.9-1.2,10.2-5.6,10.2-5.6L-7-10.3c-2.5,1.5-3.3,3.4-5.3,4.7L-11.4-7z"/>
			<path class="st0" d="M-5.1-9c1.9-1.2,8.5-5,8.5-5l-3.2,2C-1.5-10.7-4.1-8.9-6-7.6L-5.1-9z"/>
			<path class="st0" d="M1.3-10.5c1.2-0.7,7.3-2.6,7.3-2.6l-4,0.9c-1.1,0.8-2.6,1.9-3.9,2.7L1.3-10.5z"/>
			<path class="st0" d="M7.3-12.1c1.4-0.4,6.8-2.5,6.8-2.5l-3.6,1.5c-1.2,0.6-3,1.4-4.4,1.8L7.3-12.1z"/>
			<path class="st0" d="M-2.5-9.5c1.9-1.2,8.5-5,8.5-5l-4.4,2.3c-1.7,1.4-3,2.8-5,4.1L-2.5-9.5z"/>
			<path class="st0" d="M-6-5c1.8,0,8,0.5,8,0.5l-4.5,0c-2.4,0-5-1.6-7-1.7L-6-5z"/>
			<path class="st0" d="M-1.3-5.9c2.5,0,8.9-0.6,8.9-0.6l-4.3,0c-2.7-0.2-6.3-0.3-9-0.3L-1.3-5.9z"/>
			<path class="st0" d="M3.1-9.5c1.6-0.1,7.7-2.1,7.7-2.1l-3.5,1.5c-1.7,0-3.9,0.1-5.6,0.3L3.1-9.5z"/>
			<path class="st0" d="M-0.7-7.9c2.1,0,9.3-1.1,9.3-1.1l-5,1.2C1.4-8-0.2-8.5-2.4-8.5L-0.7-7.9z"/>
			<path class="st0" d="M-15.5-6.3C-13.7-7.5-5.1-13-5.1-13l-6.1,3.4c-2.5,1.5-3.3,3.4-5.3,4.7L-15.5-6.3z"/>
			<path class="st0" d="M-18.4-6.2C-16.6-7.3-8-12.8-8-12.8l-6.1,3.4c-2.5,1.5-3.3,3.4-5.3,4.7L-18.4-6.2z"/>
			<path class="st0" d="M-13.1-4.5c1.8,0.2,11.9,1.3,11.9,1.3l-6.4,0c-2.3-0.2-5-1.7-6.8-2L-13.1-4.5z"/>
			<path class="st0" d="M-15.6-3.1c2,0.2,11.3,1.3,11.3,1.3l-6.4-0.3C-13.3-2.4-14.8-3.7-17-4L-15.6-3.1z"/>
		</g>
		<g>
			<path class="st0" d="M1.7-2.1c12.2-1.7,25.1-6.1,25.1-6.1C17.3-4.1,10.7-2.8,0-0.8L1.7-2.1z"/>
			<path class="st0" d="M9.5-4c1.7-1,9.2-4.8,9.2-4.8l-5.3,2.1c-2.2,1.3-3,3-4.8,4L9.5-4z"/>
			<path class="st0" d="M15.2-5.7c1.7-1,7.7-4.3,7.7-4.3L20-8.3c-1.6,1.2-3.9,2.7-5.7,3.8L15.2-5.7z"/>
			<path class="st0" d="M21-7c1.1-0.6,6.7-2.3,6.7-2.3L24-8.5c-1,0.7-2.4,1.7-3.5,2.3L21-7z"/>
			<path class="st0" d="M26.4-8.3c1.2-0.4,6.2-2.2,6.2-2.2l-3.3,1.3c-1.1,0.5-2.7,1.2-4,1.6L26.4-8.3z"/>
			<path class="st0" d="M17.6-6.1c1.7-1,7.7-4.3,7.7-4.3l-4,2c-1.6,1.2-2.7,2.4-4.5,3.5L17.6-6.1z"/>
			<path class="st0" d="M14.3-2.2c1.7,0,7.3,0.4,7.3,0.4l-4,0c-2.1,0-4.6-1.4-6.3-1.4L14.3-2.2z"/>
			<path class="st0" d="M18.6-3c2.3,0,8.1-0.5,8.1-0.5l-3.9,0c-2.4-0.2-5.7-0.3-8.1-0.3L18.6-3z"/>
			<path class="st0" d="M22.6-6.1c1.4-0.1,7-1.8,7-1.8l-3.2,1.3c-1.5,0-3.5,0.1-5,0.2L22.6-6.1z"/>
			<path class="st0" d="M19.2-4.8c1.9,0,8.4-1,8.4-1l-4.6,1.1c-2-0.2-3.5-0.5-5.5-0.5L19.2-4.8z"/>
			<path class="st0" d="M5.7-3.4c1.7-1,9.5-5.7,9.5-5.7L9.7-6.2c-2.2,1.3-3,3-4.8,4L5.7-3.4z"/>
			<path class="st0" d="M3.1-3.2c1.7-1,9.5-5.7,9.5-5.7L7-6c-2.2,1.3-3,3-4.8,4L3.1-3.2z"/>
			<path class="st0" d="M7.9-1.8c1.6,0.2,10.7,1.1,10.7,1.1l-5.8,0c-2.1-0.2-4.5-1.5-6.2-1.7L7.9-1.8z"/>
			<path class="st0" d="M5.7-0.6C7.5-0.4,16,0.5,16,0.5l-5.8-0.3C7.8,0,6.4-1.2,4.4-1.4L5.7-0.6z"/>
		</g>
		<g>
			<path class="st0" d="M14,2.8c11.1-1.5,22.7-5.2,22.7-5.2c-8.6,3.5-14.5,4.6-24.3,6.3L14,2.8z"/>
			<path class="st0" d="M21.1,1.2C22.6,0.3,29.4-3,29.4-3l-4.8,1.8c-2,1.1-2.7,2.6-4.3,3.5L21.1,1.2z"/>
			<path class="st0" d="M26.2-0.3c1.5-0.9,7-3.7,7-3.7l-2.6,1.5c-1.4,1-3.5,2.4-5.1,3.3L26.2-0.3z"/>
			<path class="st0" d="M31.5-1.4c1-0.5,6-2,6-2l-3.3,0.6c-0.9,0.6-2.2,1.4-3.2,2L31.5-1.4z"/>
			<path class="st0" d="M36.4-2.5C37.5-2.9,42-4.4,42-4.4l-3,1.1c-1,0.5-2.4,1-3.6,1.4L36.4-2.5z"/>
			<path class="st0" d="M28.4-0.6c1.5-0.9,7-3.7,7-3.7l-3.6,1.7c-1.4,1-2.4,2.1-4.1,3L28.4-0.6z"/>
			<path class="st0" d="M25.5,2.7C27,2.7,32.1,3,32.1,3l-3.7,0c-1.9,0-4.1-1.2-5.7-1.2L25.5,2.7z"/>
			<path class="st0" d="M29.4,2c2.1,0,7.3-0.5,7.3-0.5l-3.5,0C31,1.4,28,1.3,25.8,1.3L29.4,2z"/>
			<path class="st0" d="M33-0.6c1.3-0.1,6.3-1.5,6.3-1.5l-2.9,1.1c-1.4,0-3.2,0.1-4.6,0.2L33-0.6z"/>
			<path class="st0" d="M29.9,0.5c1.7,0,7.6-0.8,7.6-0.8l-4.1,0.9c-1.8-0.1-3.1-0.5-4.9-0.5L29.9,0.5z"/>
			<path class="st0" d="M17.7,1.7c1.5-0.9,8.6-4.9,8.6-4.9l-5,2.5c-2,1.1-2.7,2.6-4.3,3.5L17.7,1.7z"/>
			<path class="st0" d="M15.3,1.8c1.5-0.9,8.6-4.9,8.6-4.9l-5,2.5c-2,1.1-2.7,2.5-4.3,3.5L15.3,1.8z"/>
			<path class="st0" d="M19.7,3.1c1.5,0.2,9.7,1,9.7,1l-5.2,0c-1.9-0.2-4.1-1.3-5.6-1.5L19.7,3.1z"/>
			<path class="st0" d="M17.7,4.1C19.3,4.2,26.9,5,26.9,5l-5.2-0.2c-2.2-0.2-3.4-1.1-5.2-1.3L17.7,4.1z"/>
		</g>
		<g>
			<path class="st0" d="M-16.8,0.1c7.6,6.3,13.9,16,13.9,16C-7,8-10.9,4.2-17.2-2L-16.8,0.1z"/>
			<path class="st0" d="M-12.5,5.1c0.5,1.8,3.3,9.1,3.3,9.1l-2.4-4.3c-0.7-2.3-0.1-4.6-0.7-6.6L-12.5,5.1z"/>
			<path class="st0" d="M-9.6,9.2C-9.1,11-7,17.1-7,17.1l-0.9-3c-0.3-2-0.9-4.7-1.5-6.6L-9.6,9.2z"/>
			<path class="st0" d="M-6.3,12.7c0.3,1.1,3.2,5,3.2,5l-2.1-2.1c-0.2-1.2-0.6-2.9-0.9-4L-6.3,12.7z"/>
			<path class="st0" d="M-3.3,16.2c0.6,0.9,3,4.8,3,4.8l-1.5-2.7c-0.4-1-1.1-2.4-1.8-3.3L-3.3,16.2z"/>
			<path class="st0" d="M-8.1,10.5c0.5,1.8,2.6,7.8,2.6,7.8L-7,14.5c-0.3-2-0.3-3.9-0.8-5.8L-8.1,10.5z"/>
			<path class="st0" d="M-7.8,4.7c1.2,0.5,5.5,2,5.5,2l-2.9-1.4c-1.5-0.7-4.2,0.1-5.5-0.4L-7.8,4.7z"/>
			<path class="st0" d="M-5.3,7.1c1.6,0.8,5.4,3.4,5.4,3.4l-2.7-1.4c-1.8-0.6-4.3-1.6-6-2.4L-5.3,7.1z"/>
			<path class="st0" d="M-4.5,12.2c0.9,0.6,3.8,4.6,3.8,4.6l-1.4-2.7c-1.1-0.5-2.5-1.3-3.5-2L-4.5,12.2z"/>
			<path class="st0" d="M-6.1,9.4c1.4,0.6,5.4,4.1,5.4,4.1l-2.6-2.9c-1.5-0.5-2.9-0.5-4.3-1.2L-6.1,9.4z"/>
			<path class="st0" d="M-14.8,3.2c0.5,1.8,2.9,10.2,2.9,10.2l-2-5.5c-0.7-2.3-0.1-4.6-0.7-6.6L-14.8,3.2z"/>
			<path class="st0" d="M-16.6,2.1c0.5,1.8,2.9,10.2,2.9,10.2l-2-5.5c-0.7-2.3-0.1-4.6-0.7-6.6L-16.6,2.1z"/>
			<path class="st0" d="M-12.2,2c1.3,0.3,8.5,2.3,8.5,2.3l-4.2-2c-1.6-0.4-4.2,0.3-5.6,0L-12.2,2z"/>
			<path class="st0" d="M-13-0.2c1.4,0.4,8.1,2.2,8.1,2.2l-4.3-1.6c-1.8-0.6-3.6,0.3-5.2-0.1L-13-0.2z"/>
		</g>
		<g>
			<path class="st0" d="M-1.7,1.4c5,5.2,8.9,13,8.9,13c-2.4-6.5-4.9-9.6-9-14.6L-1.7,1.4z"/>
			<path class="st0" d="M1,5.4c0.3,1.4,1.8,7.1,1.8,7.1L1.4,9.1C1,7.3,1.6,5.6,1.3,4.1L1,5.4z"/>
			<path class="st0" d="M2.8,8.7c0.3,1.4,1.3,6.1,1.3,6.1l-0.4-2.4c-0.1-1.5-0.3-3.6-0.6-5.1L2.8,8.7z"/>
			<path class="st0" d="M4.9,11.6c0.2,0.9,2,4,2,4l-1.3-1.8c-0.1-0.9-0.2-2.2-0.4-3.1L4.9,11.6z"/>
			<path class="st0" d="M6.8,14.4c0.4,0.7,1.8,3.8,1.8,3.8l-0.9-2.2c-0.2-0.8-0.7-1.9-1.1-2.6L6.8,14.4z"/>
			<path class="st0" d="M3.8,9.8c0.3,1.4,1.3,6.1,1.3,6.1l-0.8-3c-0.1-1.5,0.1-3-0.2-4.5L3.8,9.8z"/>
			<path class="st0" d="M4.4,5.4c0.8,0.5,3.8,1.8,3.8,1.8L6.2,6c-1-0.7-3-0.2-3.9-0.7L4.4,5.4z"/>
			<path class="st0" d="M6,7.4c1.1,0.7,3.6,2.9,3.6,2.9L7.8,9.1c-1.3-0.6-3-1.5-4.1-2.2L6,7.4z"/>
			<path class="st0" d="M6.3,11.3C6.9,11.9,8.7,15,8.7,15l-0.8-2.1c-0.7-0.5-1.7-1.2-2.3-1.7L6.3,11.3z"/>
			<path class="st0" d="M5.3,9.1c0.9,0.6,3.6,3.4,3.6,3.4l-1.6-2.3c-1.1-0.5-2-0.6-3-1.2L5.3,9.1z"/>
			<path class="st0" d="M-0.5,3.8c0.3,1.4,1.4,8,1.4,8l-1-4.3c-0.4-1.8,0.2-3.5-0.1-5L-0.5,3.8z"/>
			<path class="st0" d="M-1.7,2.9c0.3,1.4,1.4,8,1.4,8l-1-4.3c-0.4-1.8,0.2-3.5-0.1-5L-1.7,2.9z"/>
			<path class="st0" d="M1.5,3c0.9,0.3,5.9,2.2,5.9,2.2L4.5,3.5c-1.1-0.4-3,0-4-0.4L1.5,3z"/>
			<path class="st0" d="M1,1.3c1,0.4,5.6,2.1,5.6,2.1L3.7,2C2.4,1.4,1.1,2,0,1.6L1,1.3z"/>
		</g>
		<g>
			<path class="st0" d="M10.4,4.1c5.3,4.5,9.1,10.9,9.1,10.9c-2.2-5.3-4.9-8-9.2-12.2L10.4,4.1z"/>
			<path class="st0" d="M13.2,7.5c0.2,1.1,1.5,5.8,1.5,5.8l-1.4-2.8c-0.3-1.5,0.5-2.8,0.3-4L13.2,7.5z"/>
			<path class="st0" d="M15,10.3c0.2,1.1,1.1,5,1.1,5l-0.3-1.9c0-1.2-0.1-2.9-0.3-4.1L15,10.3z"/>
			<path class="st0" d="M17.3,12.7c0.1,0.7,2,3.3,2,3.3l-1.4-1.5c0-0.8-0.1-1.8-0.2-2.5L17.3,12.7z"/>
			<path class="st0" d="M19.2,15.1c0.4,0.6,1.8,3.2,1.8,3.2l-0.8-1.8c-0.2-0.7-0.6-1.5-1-2.2L19.2,15.1z"/>
			<path class="st0" d="M16.1,11.2c0.2,1.1,1.1,5,1.1,5l-0.7-2.4c0-1.2,0.3-2.4,0.1-3.6L16.1,11.2z"/>
			<path class="st0" d="M17,7.7c0.9,0.4,4.2,1.7,4.2,1.7l-2.2-1.1c-1.1-0.6-3.4-0.3-4.4-0.8L17,7.7z"/>
			<path class="st0" d="M18.8,9.4c1.2,0.6,3.9,2.6,3.9,2.6l-2-1.1c-1.4-0.5-3.2-1.4-4.5-2L18.8,9.4z"/>
			<path class="st0" d="M18.8,12.6c0.7,0.5,2.5,3.1,2.5,3.1l-0.8-1.7c-0.8-0.4-1.8-1-2.5-1.5L18.8,12.6z"/>
			<path class="st0" d="M17.8,10.7c1,0.5,3.8,3,3.8,3l-1.7-2c-1.2-0.4-2.2-0.6-3.3-1.1L17.8,10.7z"/>
			<path class="st0" d="M11.6,6.1c0.2,1.1,1,6.4,1,6.4l-0.9-3.5c-0.3-1.5,0.5-2.8,0.3-4L11.6,6.1z"/>
			<path class="st0" d="M10.3,5.3c0.2,1.1,1,6.4,1,6.4l-0.9-3.5c-0.3-1.5,0.5-2.8,0.3-4L10.3,5.3z"/>
			<path class="st0" d="M13.9,5.7c1,0.3,6.5,2.2,6.5,2.2l-3.1-1.6c-1.3-0.4-3.4-0.2-4.5-0.6L13.9,5.7z"/>
			<path class="st0" d="M13.5,4.3c1.1,0.4,6.2,2.1,6.2,2.1L16.5,5c-1.4-0.5-3-0.1-4.1-0.5L13.5,4.3z"/>
		</g>
		<g>
			<path class="st0" d="M22.4,7.2c9.3,2,17.5,6.5,17.5,6.5C34.3,9.7,29.5,8.3,21.7,6L22.4,7.2z"/>
			<path class="st0" d="M27.8,9.3c0.8,1,4.9,4.8,4.9,4.8L29.4,12c-1.1-1.2-0.7-2.8-1.6-3.9L27.8,9.3z"/>
			<path class="st0" d="M31.5,11.1c0.8,1,3.9,4.2,3.9,4.2L34,13.6c-0.6-1.2-1.6-2.7-2.5-3.7L31.5,11.1z"/>
			<path class="st0" d="M35.7,12.5c0.5,0.6,4.2,2.3,4.2,2.3L37.3,14c-0.4-0.7-1-1.6-1.6-2.3L35.7,12.5z"/>
			<path class="st0" d="M39.4,13.9c0.8,0.4,3.9,2.2,3.9,2.2l-2-1.3c-0.6-0.5-1.6-1.2-2.4-1.6L39.4,13.9z"/>
			<path class="st0" d="M33.3,11.5c0.8,1,3.9,4.2,3.9,4.2l-2.2-2c-0.6-1.2-0.8-2.3-1.7-3.4L33.3,11.5z"/>
			<path class="st0" d="M32.9,7.9c1.4,0,6.4-0.1,6.4-0.1l-3.4-0.2c-1.8-0.1-4.7,1.1-6.2,1.1L32.9,7.9z"/>
			<path class="st0" d="M36,8.8c1.9,0.1,6.5,0.8,6.5,0.8l-3.2-0.2c-2.1,0.1-5,0-7-0.1L36,8.8z"/>
			<path class="st0" d="M37.6,11.7c1.1,0.2,4.8,1.9,4.8,1.9l-1.9-1.3c-1.3-0.1-2.9-0.2-4.1-0.4L37.6,11.7z"/>
			<path class="st0" d="M35.5,10.4c1.6,0.1,6.5,1.2,6.5,1.2l-3.2-1.1c-1.8,0.1-3.2,0.4-4.9,0.3L35.5,10.4z"/>
			<path class="st0" d="M25,8.6c0.8,1,4.5,5.6,4.5,5.6l-2.9-2.9c-1.1-1.2-0.7-2.8-1.6-3.9L25,8.6z"/>
			<path class="st0" d="M22.9,8.3c0.8,1,4.5,5.6,4.5,5.6l-2.9-2.9c-1.1-1.2-0.7-2.8-1.6-3.9L22.9,8.3z"/>
			<path class="st0" d="M27.8,7.2c1.5-0.1,9.7-0.6,9.7-0.6l-4.9-0.2c-1.9,0.1-4.7,1.2-6.2,1.3L27.8,7.2z"/>
			<path class="st0" d="M26.6,6.1c1.6-0.1,9.3-0.6,9.3-0.6l-5,0c-2.1,0.1-4,1.1-5.7,1.2L26.6,6.1z"/>
		</g>
	</g>
</symbol>
<g>
	<g>
		<path class="st2" d="M307.9,78.8c-0.4,5.1-0.8,10-1.1,14.9c-0.1,1.8,0.2,3.6,0.8,5.3c0.8,2.7,3.1,3.4,5.1,1.5c1.6-1.5,3-3.4,4-5.4
			c2.4-4.7,3.8-9.8,4.4-15.1c0-0.4,0.2-0.8,0.3-1.2c10.2,0,20.4,0,31.1,0c-1.1,3.4-2,6.7-3.3,9.7c-4.3,10.4-10.8,19-20.7,24.6
			c-6.7,3.8-14,5.4-21.6,4.9c-4.9-0.3-9.9-0.6-14.7-1.6c-8.1-1.7-12.1-6.6-12.7-14.8c-0.5-7.4,0.7-14.6,1.8-21.8
			c0.1-0.4,0.7-1,1.1-1C291,78.7,299.4,78.8,307.9,78.8C307.9,78.8,307.9,78.9,307.9,78.8z"/>
		<path class="st2" d="M321.7,75.1c-0.4-1.8-0.5-3.6-1-5.2c-1.3-4.2-4.8-5.1-7.7-1.8c-1.4,1.7-2.3,3.9-3.4,5.8
			c-0.3,0.5-1,1.2-1.5,1.2c-8.4,0.1-16.7,0.1-25.1,0c-0.2,0-0.3-0.1-0.6-0.2c0.3-2.3,0.6-4.6,0.9-6.9c0.3-2.6,0.7-5.2,0.9-7.8
			c0.1-1.3,0.6-1.6,1.9-1.6c9.6,0,19.2,0,28.7,0c11.7,0,23.5,0,35.2,0c1.5,0,2.3,0.4,2.4,1.9c0.3,4.3,0.6,8.7,0.9,13
			c0.1,1-0.3,1.5-1.5,1.5c-9.8,0-19.5,0-29.3,0C322.1,75.2,321.9,75.1,321.7,75.1z"/>
		<path class="st2" d="M316.1,37.9c-0.9,2.5-1.8,4.8-2.5,7.2c-0.4,1.5-0.7,3.1-0.7,4.6c0,2.1,1.5,3.4,3.5,2.7
			c1.8-0.6,3.6-1.6,5.1-2.9c5.2-4.6,11.2-5.6,17.8-4.2c4.7,1,8,3.9,10.4,8.3c-21.8,0-43.3,0-65,0c-0.4-5.7,0.6-11.8-5.3-15.7
			C291.6,37.9,303.8,37.9,316.1,37.9z"/>
		<path class="st2" d="M297.5,32.7c-6.5,0-13,0-19.5,0c-1.5,0-1.9-0.5-1.9-1.9c0-3.5,1.5-6.1,4.2-8.2c3.5-2.6,7.6-3.7,11.8-4.4
			c6.8-1,13.6-1.6,20.4-0.2c1.8,0.4,3.7,1.1,5.3,2c3.1,1.8,4,4.5,2.9,7.9c-0.1,0.2-0.1,0.3-0.1,0.5c-1.5,4.2-1.5,4.2-5.9,4.2
			C309,32.7,303.3,32.7,297.5,32.7z"/>
	</g>
	<g>
		<path class="st2" d="M204.2,78.8c0,3.2,0,6.3,0,9.3c0.1,3.3,1.3,5.7,4.6,7c5.3,2.2,5.9,4.9,2,9.1c-6.9,7.5-15.2,12.8-25.7,13.7
			c-5.4,0.5-8.2-1.3-10.1-6.3c-1-2.6-1.5-5.4-2.2-8.1c-1.8,1.9-3.5,4.1-5.4,5.9c-7.3,7-16,9.2-25.7,7c-6.6-1.5-10.2-6.2-10.7-13.7
			c-0.5-7.7,0.7-15.3,2.6-22.7c0.1-0.4,0.8-1,1.2-1c9.2-0.1,18.4,0,27.5,0c0.2,0,0.3,0.1,0.6,0.2c-0.2,1.7-0.7,3.3-0.6,5
			c0,2.3,0.1,4.7,0.7,6.9c0.8,3,3,3.9,5.7,2.3c1.8-1,3.5-2.5,4.6-4.1c2-2.8,3.6-6,5.4-8.9c0.4-0.6,1.1-1.3,1.7-1.3
			c7.7-0.1,15.5-0.1,23.2,0C204,78.7,204.2,78.8,204.2,78.8z"/>
		<path class="st2" d="M206.1,58.9c-0.4,5.2-0.8,10.3-1.1,15.3c-0.1,1.2-0.9,1-1.6,1c-6.9,0-13.8,0-20.7,0c-0.5,0-1,0-1.3-0.1
			c0.2-2.4,0.6-4.7,0.5-7c-0.2-3.4-2.1-5.6-4.8-6.3c-3-0.7-5.9,0.3-7.6,3.2c-1.6,2.8-2.8,5.8-4.3,8.7c-0.3,0.6-1.1,1.3-1.7,1.3
			c-9.2,0.1-18.5,0-27.7,0c-0.1,0-0.2-0.1-0.4-0.1c0-0.3,0-0.7,0.1-1c2.2-4.7,4.3-9.4,6.6-14c0.3-0.6,1.4-1.3,2.2-1.3
			c20.3-0.1,40.5-0.1,60.8,0C205.3,58.8,205.7,58.9,206.1,58.9z"/>
		<path class="st2" d="M147.3,53.6c9.2-8.4,19.1-8.9,29.7-4.3c2-4.1,1.8-7.5-0.6-11.3c12.2,0,24.2,0,36.4,0
			c-0.1,0.3-0.1,0.6-0.2,0.9c-1.5,4.5-3.1,9-4.6,13.5c-0.3,1-0.7,1.4-1.8,1.4c-19.2,0-38.3,0-57.5,0C148.4,53.7,148,53.6,147.3,53.6
			z"/>
		<path class="st2" d="M174.8,32.7c-0.2-4.1,0.8-7.6,3.9-9.9c2-1.4,4.3-2.7,6.7-3.2c6.9-1.5,13.9-1.4,20.7,0c4.2,0.9,7.7,2.9,9,7.5
			c0.1,0.2,0.1,0.4,0.2,0.7c0.7,4.1,0,5-4.1,5c-11.4,0-22.9,0-34.3,0C176.3,32.7,175.7,32.7,174.8,32.7z"/>
	</g>
	<g>
		<path class="st2" d="M257.8,78.9c-0.3,3.5-0.5,6.8-0.7,10.2c0,0.3,0,0.6,0,0.9c0,3.8,0,3.8,3.8,4.3c0.6,0.1,1.3,0.2,1.9,0.4
			c3.7,1.1,4.9,4,2.9,7.3c-2.3,3.9-5.7,6.7-9.5,9.1c-7.8,4.9-16.2,7-25.3,5c-6.2-1.3-9.2-5.4-8.3-11.7c0.8-5.2,2.2-10.3,3.4-15.4
			c0.7-3,1.5-6.1,2.4-9.1c0.1-0.5,0.8-1.1,1.3-1.1c9.2-0.1,18.3,0,27.5,0C257.4,78.7,257.5,78.8,257.8,78.9z"/>
		<path class="st2" d="M258.4,75.1c-9.6,0-19.4,0-29.4,0c0-1.6,0.1-3.2,0-4.7c-0.2-2.4-0.9-4.3-3.6-4.9c-0.3-0.1-0.6-0.7-0.9-1
			c-0.1-0.1,0-0.3,0-0.5c0.1-4.7,0.6-5.2,5.2-5.2c10.5,0,20.9,0,31.4,0c0.7,0,1.4,0,2.1,0C261.6,64.4,260,69.7,258.4,75.1z"/>
		<path class="st2" d="M246.2,32.7c-5.2,0-10.5-0.1-15.7,0c-1.4,0-1.8-0.6-1.9-1.8c-0.2-3,1.4-5.2,3.4-7.1c4.8-4.3,10.6-6,16.9-6.4
			c3.3-0.2,6.6,0,9.8,1.3c4.8,2,7.2,7.8,5.4,12.7c-0.4,1-0.9,1.4-2,1.4C256.8,32.7,251.5,32.7,246.2,32.7z"/>
		<path class="st2" d="M228.8,53.6c3.3-3.5,7.2-5.4,11.5-6.5c5.6-1.4,11.2-1.9,16.9-1c1.3,0.2,2.6,0.6,3.8,1.1
			c2.7,1.1,3.8,3.3,3.5,6.4C252.7,53.6,240.9,53.6,228.8,53.6z"/>
		<path class="st2" d="M257.9,37.9c-6,5-20.1,5-25.1,0C241.3,37.9,249.5,37.9,257.9,37.9z"/>
	</g>
</g>
<g>
	<path class="st2" d="M14,162.3c0-8.1,0-9.5-0.1-11.2c-0.1-1.8-0.5-2.6-2.3-3c-0.4-0.1-1.3-0.2-2.1-0.2c-0.6,0-0.9-0.1-0.9-0.5
		c0-0.4,0.4-0.5,1.2-0.5c2.8,0,6.1,0.2,7.6,0.2c1.6,0,5-0.2,8.2-0.2c6.6,0,15.5,0,21.3,6c2.6,2.8,5.1,7.2,5.1,13.5
		c0,6.7-2.8,11.8-5.8,14.8c-2.4,2.5-7.9,6.3-17.8,6.3c-1.9,0-4.1-0.2-6.1-0.3c-2-0.2-3.9-0.3-5.2-0.3c-0.6,0-1.7,0-3,0.1
		c-1.2,0-2.6,0.1-3.7,0.1c-0.7,0-1.1-0.2-1.1-0.5c0-0.3,0.2-0.4,0.8-0.4c0.8,0,1.4-0.1,1.9-0.2c1.1-0.2,1.3-1.4,1.5-2.9
		c0.3-2.2,0.3-6.4,0.3-11.3V162.3z M20.6,168.1c0,5.6,0.1,9.7,0.1,10.7c0.1,1.3,0.2,3.4,0.6,4c0.7,1,2.8,2.1,6.9,2.1
		c5.4,0,9-1.1,12.2-3.8c3.4-2.9,4.5-7.7,4.5-13.2c0-6.7-2.8-11.1-5.1-13.2c-4.9-4.7-10.9-5.3-15.1-5.3c-1.1,0-3,0.2-3.4,0.4
		c-0.5,0.2-0.6,0.5-0.6,1.1c-0.1,1.8-0.1,6.4-0.1,10.6V168.1z"/>
	<path class="st2" d="M63.1,162.3c0-8.1,0-9.5-0.1-11.2c-0.1-1.8-0.6-2.7-1.8-3c-0.6-0.2-1.3-0.2-1.9-0.2c-0.5,0-0.8-0.1-0.8-0.5
		c0-0.3,0.4-0.4,1.3-0.4c2,0,5.4,0.2,6.9,0.2c1.3,0,4.5-0.2,6.5-0.2c0.7,0,1.1,0.1,1.1,0.4c0,0.4-0.3,0.5-0.8,0.5
		c-0.5,0-1,0.1-1.6,0.2c-1.4,0.3-1.9,1.2-2,3c-0.1,1.7-0.1,3.2-0.1,11.2v9.3c0,5.1,0,9.3,0.2,11.6c0.2,1.4,0.5,2.4,2.1,2.6
		c0.7,0.1,1.9,0.2,2.7,0.2c0.6,0,0.8,0.2,0.8,0.4c0,0.4-0.4,0.5-1,0.5c-3.5,0-6.8-0.2-8.3-0.2c-1.2,0-4.6,0.2-6.7,0.2
		c-0.7,0-1.1-0.2-1.1-0.5c0-0.3,0.2-0.4,0.8-0.4c0.8,0,1.4-0.1,1.9-0.2c1.1-0.2,1.4-1.1,1.5-2.6c0.3-2.2,0.3-6.4,0.3-11.6V162.3z"/>
	<path class="st2" d="M87.1,162.3c0-8.1,0-9.5-0.1-11.2c-0.1-1.8-0.5-2.6-2.3-3c-0.4-0.1-1.3-0.2-2.1-0.2c-0.6,0-0.9-0.1-0.9-0.5
		c0-0.4,0.4-0.5,1.2-0.5c2.8,0,6.1,0.2,7.6,0.2c2.2,0,5.2-0.2,7.7-0.2c6.6,0,9,2.2,9.9,3c1.2,1.1,2.7,3.5,2.7,6.3
		c0,7.5-5.5,12.8-13,12.8c-0.3,0-0.8,0-1.1-0.1c-0.3-0.1-0.6-0.1-0.6-0.5c0-0.4,0.4-0.6,1.5-0.6c3,0,7.1-3.3,7.1-8.7
		c0-1.7-0.2-5.3-3.1-7.9c-1.9-1.7-4.1-2.1-5.3-2.1c-0.8,0-1.6,0.1-2.1,0.2c-0.3,0.1-0.4,0.4-0.4,1v21.2c0,4.9,0,9.1,0.3,11.3
		c0.2,1.5,0.5,2.6,2.1,2.9c0.7,0.1,1.9,0.2,2.7,0.2c0.6,0,0.8,0.2,0.8,0.4c0,0.4-0.4,0.5-1,0.5c-3.5,0-6.8-0.2-8.2-0.2
		c-1.2,0-4.6,0.2-6.7,0.2c-0.7,0-1.1-0.2-1.1-0.5c0-0.3,0.2-0.4,0.8-0.4c0.8,0,1.4-0.1,1.9-0.2c1.1-0.2,1.3-1.4,1.5-2.9
		c0.3-2.2,0.3-6.4,0.3-11.3V162.3z"/>
	<path class="st2" d="M121.2,173.5c-0.3,0-0.4,0.1-0.5,0.4l-2.9,7.3c-0.5,1.3-0.8,2.6-0.8,3.2c0,1,0.5,1.6,2.1,1.6h0.8
		c0.6,0,0.8,0.1,0.8,0.4c0,0.4-0.3,0.5-0.9,0.5c-1.7,0-4-0.2-5.6-0.2c-0.6,0-3.5,0.2-6.3,0.2c-0.7,0-1-0.1-1-0.5
		c0-0.3,0.2-0.4,0.6-0.4c0.5,0,1.2-0.1,1.6-0.1c2.4-0.3,3.4-2.1,4.5-4.8l13.3-32.9c0.6-1.5,1-2.1,1.5-2.1c0.5,0,0.8,0.5,1.3,1.7
		c1.3,2.9,9.8,24.1,13.1,32.2c2,4.8,3.5,5.5,4.7,5.8c0.8,0.2,1.6,0.2,2.2,0.2c0.4,0,0.7,0.1,0.7,0.4c0,0.4-0.5,0.5-2.4,0.5
		c-1.9,0-5.8,0-10-0.1c-1-0.1-1.6-0.1-1.6-0.4c0-0.3,0.2-0.4,0.7-0.5c0.4-0.1,0.7-0.6,0.5-1.2l-4.2-10.9c-0.1-0.3-0.3-0.4-0.5-0.4
		H121.2z M132,170.8c0.3,0,0.3-0.2,0.3-0.3l-4.8-13c-0.1-0.2-0.1-0.5-0.3-0.5c-0.2,0-0.3,0.3-0.3,0.5l-4.9,13
		c-0.1,0.2,0,0.4,0.2,0.4H132z"/>
	<path class="st2" d="M156.2,162.3c0-8.1,0-9.5-0.1-11.2c-0.1-1.8-0.5-2.6-2.3-3c-0.4-0.1-1.3-0.2-2.1-0.2c-0.6,0-0.9-0.1-0.9-0.5
		c0-0.4,0.4-0.5,1.2-0.5c2.8,0,6.1,0.2,7.3,0.2c1.8,0,5.8-0.2,7.5-0.2c3.3,0,6.9,0.3,9.8,2.3c1.5,1,3.6,3.7,3.6,7.3
		c0,3.9-1.6,7.5-7,11.9c4.7,5.9,8.4,10.7,11.5,13.9c3,3.1,5.1,3.4,5.9,3.6c0.6,0.1,1.1,0.2,1.5,0.2c0.4,0,0.6,0.2,0.6,0.4
		c0,0.4-0.4,0.5-1,0.5h-5c-3,0-4.3-0.3-5.7-1c-2.3-1.2-4.3-3.7-7.3-7.8c-2.1-2.9-4.6-6.5-5.2-7.3c-0.3-0.3-0.6-0.4-1-0.4l-4.6-0.1
		c-0.3,0-0.4,0.1-0.4,0.4v0.7c0,4.9,0,9.1,0.3,11.3c0.2,1.5,0.5,2.7,2.1,2.9c0.8,0.1,2,0.2,2.6,0.2c0.4,0,0.6,0.2,0.6,0.4
		c0,0.4-0.4,0.5-1.1,0.5c-3.1,0-7-0.2-7.8-0.2c-1,0-4.3,0.2-6.5,0.2c-0.7,0-1.1-0.2-1.1-0.5c0-0.3,0.2-0.4,0.8-0.4
		c0.8,0,1.4-0.1,1.9-0.2c1.1-0.2,1.3-1.4,1.5-2.9c0.3-2.2,0.3-6.4,0.3-11.3V162.3z M162.5,166.5c0,0.6,0.1,0.8,0.5,1
		c1.1,0.4,2.7,0.5,4,0.5c2.1,0,2.8-0.2,3.8-0.9c1.6-1.2,3.1-3.6,3.1-7.9c0-7.5-5-9.7-8.1-9.7c-1.3,0-2.3,0.1-2.8,0.2
		c-0.4,0.1-0.5,0.3-0.5,0.7V166.5z"/>
	<path class="st2" d="M201.3,149.9l-7.9,0.2c-3.1,0.1-4.3,0.4-5.1,1.5c-0.5,0.8-0.8,1.4-0.9,1.9c-0.1,0.4-0.3,0.6-0.6,0.6
		c-0.4,0-0.5-0.3-0.5-0.8c0-0.8,1-5.7,1.1-6.1c0.2-0.7,0.3-1,0.6-1c0.4,0,1,0.5,2.3,0.6c1.5,0.2,3.6,0.3,5.3,0.3h21
		c1.7,0,2.9-0.2,3.7-0.3c0.8-0.2,1.2-0.3,1.4-0.3c0.4,0,0.4,0.3,0.4,1.1c0,1.1-0.2,4.8-0.2,6.1c-0.1,0.5-0.2,0.8-0.5,0.8
		c-0.4,0-0.5-0.3-0.6-1.1l-0.1-0.6c-0.1-1.4-1.5-2.9-6.3-3l-6.7-0.2v21.7c0,4.9,0,9.1,0.3,11.3c0.2,1.5,0.5,2.6,2.1,2.9
		c0.7,0.1,1.9,0.2,2.7,0.2c0.6,0,0.8,0.2,0.8,0.4c0,0.4-0.4,0.5-1,0.5c-3.5,0-6.8-0.2-8.3-0.2c-1.2,0-4.6,0.2-6.7,0.2
		c-0.7,0-1.1-0.2-1.1-0.5c0-0.3,0.2-0.4,0.8-0.4c0.8,0,1.4-0.1,1.9-0.2c1.1-0.2,1.4-1.4,1.5-2.9c0.3-2.2,0.3-6.4,0.3-11.3V149.9z"/>
	<path class="st2" d="M231.8,162.3c0-8.1,0-9.5-0.1-11.2c-0.1-1.8-0.6-2.7-1.8-3c-0.6-0.2-1.3-0.2-1.9-0.2c-0.5,0-0.8-0.1-0.8-0.5
		c0-0.3,0.4-0.4,1.3-0.4c2,0,5.4,0.2,6.9,0.2c1.3,0,4.5-0.2,6.5-0.2c0.7,0,1.1,0.1,1.1,0.4c0,0.4-0.3,0.5-0.8,0.5
		c-0.5,0-1,0.1-1.6,0.2c-1.4,0.3-1.9,1.2-2,3c-0.1,1.7-0.1,3.2-0.1,11.2v9.3c0,5.1,0,9.3,0.2,11.6c0.2,1.4,0.5,2.4,2.1,2.6
		c0.7,0.1,1.9,0.2,2.7,0.2c0.6,0,0.8,0.2,0.8,0.4c0,0.4-0.4,0.5-1,0.5c-3.5,0-6.8-0.2-8.3-0.2c-1.2,0-4.6,0.2-6.7,0.2
		c-0.7,0-1.1-0.2-1.1-0.5c0-0.3,0.2-0.4,0.8-0.4c0.8,0,1.4-0.1,1.9-0.2c1.1-0.2,1.4-1.1,1.5-2.6c0.3-2.2,0.3-6.4,0.3-11.6V162.3z"/>
	<path class="st2" d="M257.8,147.6c0.2-0.9,0.5-1.4,0.9-1.4s0.7,0.3,1.4,1.6l14.5,29.5l14.4-29.8c0.4-0.8,0.7-1.3,1.2-1.3
		c0.5,0,0.8,0.5,1,1.6l4.8,32.4c0.5,3.3,1,4.9,2.6,5.4c1.5,0.5,2.6,0.5,3.3,0.5c0.5,0,0.8,0.1,0.8,0.4c0,0.4-0.6,0.6-1.4,0.6
		c-1.3,0-8.6-0.1-10.8-0.3c-1.2-0.1-1.5-0.3-1.5-0.6c0-0.3,0.2-0.4,0.6-0.6c0.3-0.1,0.5-0.8,0.3-2.3l-3.2-23.1h-0.2L274.9,184
		c-1.2,2.5-1.5,3-2,3c-0.5,0-1-1.1-1.9-2.6c-1.3-2.4-5.5-10.5-6.1-12c-0.5-1.1-3.7-7.4-5.5-11.3h-0.2l-2.8,20.7
		c-0.1,1-0.2,1.6-0.2,2.5c0,1,0.7,1.5,1.6,1.7c1,0.2,1.7,0.3,2.2,0.3c0.4,0,0.8,0.1,0.8,0.4c0,0.5-0.5,0.6-1.3,0.6
		c-2.2,0-4.6-0.2-5.6-0.2c-1,0-3.6,0.2-5.2,0.2c-0.5,0-1-0.1-1-0.6c0-0.3,0.3-0.4,0.8-0.4c0.4,0,0.8,0,1.6-0.2
		c1.5-0.3,1.9-2.4,2.2-4.2L257.8,147.6z"/>
	<path class="st2" d="M311.1,162.3c0-8.1,0-9.5-0.1-11.2c-0.1-1.8-0.5-2.6-2.3-3c-0.4-0.1-1.3-0.2-2.1-0.2c-0.6,0-0.9-0.1-0.9-0.5
		c0-0.4,0.4-0.5,1.2-0.5c1.4,0,3,0.1,4.3,0.1c1.4,0.1,2.6,0.1,3.3,0.1c1.7,0,12.2,0,13.2-0.1c1-0.1,1.9-0.2,2.3-0.3
		c0.3-0.1,0.6-0.2,0.8-0.2c0.3,0,0.3,0.2,0.3,0.5c0,0.4-0.3,1-0.4,3.4c-0.1,0.5-0.2,2.9-0.3,3.5c-0.1,0.3-0.2,0.6-0.5,0.6
		c-0.4,0-0.5-0.3-0.5-0.7c0-0.4-0.1-1.3-0.3-1.9c-0.4-1-0.9-1.6-3.5-1.9c-0.9-0.1-6.5-0.2-7.5-0.2c-0.3,0-0.4,0.2-0.4,0.5v13.4
		c0,0.4,0.1,0.6,0.4,0.6c1.2,0,7.3,0,8.5-0.1c1.3-0.1,2.1-0.3,2.5-0.8c0.4-0.4,0.6-0.7,0.8-0.7c0.2,0,0.4,0.1,0.4,0.4
		c0,0.3-0.2,1.2-0.4,3.9c-0.1,1.1-0.2,3.2-0.2,3.6c0,0.4,0,1-0.5,1c-0.4,0-0.5-0.2-0.5-0.5c-0.1-0.5-0.1-1.2-0.2-1.9
		c-0.3-1.1-1-1.9-3-2.1c-1-0.1-6.3-0.2-7.5-0.2c-0.3,0-0.3,0.2-0.3,0.5v4.2c0,1.8-0.1,6.7,0,8.2c0.1,3.7,1,4.5,6.4,4.5
		c1.4,0,3.6,0,5-0.6c1.4-0.6,2-1.7,2.4-3.9c0.1-0.6,0.2-0.8,0.6-0.8c0.4,0,0.4,0.4,0.4,1c0,1.2-0.4,4.8-0.7,5.9
		c-0.4,1.4-0.8,1.4-2.9,1.4c-4,0-6.9-0.1-9.2-0.2c-2.3-0.1-3.9-0.2-5.5-0.2c-0.6,0-1.7,0-3,0.1c-1.2,0-2.6,0.1-3.7,0.1
		c-0.7,0-1.1-0.2-1.1-0.5c0-0.3,0.2-0.4,0.8-0.4c0.8,0,1.4-0.1,1.9-0.2c1.1-0.2,1.3-1.4,1.5-2.9c0.3-2.2,0.3-6.4,0.3-11.3V162.3z"/>
	<path class="st2" d="M347.5,179.8c0.1,4.1,0.8,5.5,1.9,5.9c0.9,0.3,1.9,0.4,2.8,0.4c0.6,0,0.9,0.1,0.9,0.4c0,0.4-0.5,0.5-1.2,0.5
		c-3.4,0-5.6-0.2-6.6-0.2c-0.5,0-3,0.2-5.7,0.2c-0.7,0-1.2-0.1-1.2-0.5c0-0.3,0.3-0.4,0.8-0.4c0.7,0,1.6-0.1,2.4-0.3
		c1.4-0.4,1.6-2,1.6-6.6l0.5-31.2c0-1.1,0.2-1.8,0.7-1.8c0.6,0,1.1,0.7,2,1.6c0.6,0.7,8.7,9.2,16.4,16.9
		c3.6,3.6,10.8,11.2,11.7,12.1h0.3l-0.5-23.8c-0.1-3.2-0.5-4.2-1.8-4.8c-0.8-0.3-2.1-0.3-2.8-0.3c-0.6,0-0.8-0.2-0.8-0.5
		c0-0.4,0.6-0.5,1.4-0.5c2.8,0,5.3,0.2,6.4,0.2c0.6,0,2.6-0.2,5.2-0.2c0.7,0,1.2,0.1,1.2,0.5c0,0.3-0.3,0.5-1,0.5
		c-0.5,0-1,0-1.6,0.2c-1.5,0.4-1.9,1.5-2,4.5l-0.6,33.4c0,1.2-0.2,1.6-0.7,1.6c-0.6,0-1.2-0.6-1.8-1.2c-3.3-3.2-10.1-10.1-15.6-15.6
		c-5.8-5.7-11.7-12.2-12.6-13.2H347L347.5,179.8z"/>
	<path class="st2" d="M401.8,149.9l-7.9,0.2c-3.1,0.1-4.3,0.4-5.1,1.5c-0.5,0.8-0.8,1.4-0.9,1.9c-0.1,0.4-0.3,0.6-0.6,0.6
		c-0.4,0-0.5-0.3-0.5-0.8c0-0.8,1-5.7,1.1-6.1c0.2-0.7,0.3-1,0.6-1c0.4,0,1,0.5,2.3,0.6c1.5,0.2,3.6,0.3,5.3,0.3h21
		c1.7,0,2.9-0.2,3.7-0.3c0.8-0.2,1.2-0.3,1.4-0.3c0.4,0,0.4,0.3,0.4,1.1c0,1.1-0.2,4.8-0.2,6.1c-0.1,0.5-0.2,0.8-0.5,0.8
		c-0.4,0-0.5-0.3-0.6-1.1l-0.1-0.6c-0.1-1.4-1.5-2.9-6.3-3l-6.7-0.2v21.7c0,4.9,0,9.1,0.3,11.3c0.2,1.5,0.5,2.6,2.1,2.9
		c0.7,0.1,1.9,0.2,2.7,0.2c0.6,0,0.8,0.2,0.8,0.4c0,0.4-0.4,0.5-1,0.5c-3.5,0-6.8-0.2-8.3-0.2c-1.2,0-4.6,0.2-6.7,0.2
		c-0.7,0-1.1-0.2-1.1-0.5c0-0.3,0.2-0.4,0.8-0.4c0.8,0,1.4-0.1,1.9-0.2c1.1-0.2,1.4-1.4,1.5-2.9c0.3-2.2,0.3-6.4,0.3-11.3V149.9z"/>
	<path class="st2" d="M425.9,167c0-9.1,6-20.8,21.9-20.8c13.2,0,21.4,7.7,21.4,19.8c0,12.1-8.5,21.7-21.9,21.7
		C432.1,187.7,425.9,176.3,425.9,167z M461.8,168c0-11.9-6.8-19.2-15.5-19.2c-6.1,0-13,3.4-13,16.6c0,11,6.1,19.8,16.3,19.8
		C453.2,185.1,461.8,183.3,461.8,168z"/>
	<path class="st2" d="M13.2,222.2c0-7.3,0-8.6-0.1-10.2c-0.1-1.6-0.5-2.4-2.1-2.7c-0.4-0.1-1.2-0.1-1.9-0.1c-0.5,0-0.8-0.1-0.8-0.4
		c0-0.3,0.3-0.4,1.1-0.4c2.5,0,5.6,0.1,6.9,0.1c1.5,0,4.5-0.1,7.4-0.1c6,0,14,0,19.2,5.5c2.4,2.5,4.7,6.5,4.7,12.2
		c0,6-2.5,10.7-5.2,13.4c-2.2,2.3-7.2,5.7-16.1,5.7c-1.7,0-3.7-0.1-5.5-0.3c-1.8-0.1-3.5-0.3-4.7-0.3c-0.5,0-1.6,0-2.7,0
		c-1.1,0-2.4,0.1-3.3,0.1c-0.6,0-1-0.1-1-0.5c0-0.2,0.2-0.4,0.8-0.4c0.7,0,1.3-0.1,1.7-0.2c1-0.2,1.2-1.2,1.4-2.6
		c0.2-2,0.2-5.8,0.2-10.2V222.2z M19.2,227.5c0,5.1,0,8.8,0.1,9.7c0,1.2,0.1,3.1,0.5,3.6c0.6,0.9,2.5,1.9,6.3,1.9
		c4.9,0,8.2-1,11-3.5c3.1-2.6,4-7,4-12c0-6.1-2.5-10-4.6-12c-4.4-4.2-9.9-4.8-13.6-4.8c-1,0-2.7,0.1-3.1,0.3c-0.4,0.2-0.6,0.4-0.6,1
		c0,1.6,0,5.8,0,9.6V227.5z"/>
	<path class="st2" d="M57.6,222.2c0-7.3,0-8.6-0.1-10.2c-0.1-1.6-0.6-2.4-1.6-2.7c-0.5-0.1-1.2-0.2-1.7-0.2c-0.5,0-0.8-0.1-0.8-0.5
		c0-0.3,0.4-0.4,1.2-0.4c1.8,0,4.8,0.1,6.2,0.1c1.2,0,4-0.1,5.9-0.1c0.6,0,1,0.1,1,0.4c0,0.4-0.3,0.5-0.8,0.5c-0.5,0-0.9,0-1.4,0.1
		c-1.3,0.2-1.7,1.1-1.8,2.7c-0.1,1.5-0.1,2.9-0.1,10.2v8.4c0,4.7,0,8.4,0.2,10.5c0.1,1.3,0.5,2.2,1.9,2.4c0.7,0.1,1.7,0.2,2.4,0.2
		c0.5,0,0.8,0.1,0.8,0.4c0,0.3-0.4,0.5-0.9,0.5c-3.2,0-6.2-0.1-7.5-0.1c-1.1,0-4.1,0.1-6,0.1c-0.6,0-1-0.1-1-0.5
		c0-0.2,0.2-0.4,0.8-0.4c0.7,0,1.3-0.1,1.7-0.2c1-0.2,1.2-1,1.4-2.4c0.2-2,0.2-5.8,0.2-10.5V222.2z"/>
	<path class="st2" d="M93.7,222.2c0-7.3,0-8.6-0.1-10.2c-0.1-1.6-0.6-2.4-1.6-2.7c-0.5-0.1-1.2-0.2-1.7-0.2c-0.5,0-0.8-0.1-0.8-0.5
		c0-0.3,0.4-0.4,1.2-0.4c1.8,0,4.8,0.1,6.2,0.1c1.2,0,4-0.1,5.9-0.1c0.6,0,1,0.1,1,0.4c0,0.4-0.3,0.5-0.8,0.5c-0.5,0-0.9,0-1.4,0.1
		c-1.3,0.2-1.7,1.1-1.8,2.7c-0.1,1.5-0.1,2.9-0.1,10.2v8.4c0,4.7,0,8.4,0.2,10.5c0.1,1.3,0.5,2.2,1.9,2.4c0.7,0.1,1.7,0.2,2.4,0.2
		c0.5,0,0.8,0.1,0.8,0.4c0,0.3-0.4,0.5-0.9,0.5c-3.2,0-6.2-0.1-7.5-0.1c-1.1,0-4.1,0.1-6,0.1c-0.6,0-1-0.1-1-0.5
		c0-0.2,0.2-0.4,0.8-0.4c0.7,0,1.3-0.1,1.7-0.2c1-0.2,1.2-1,1.4-2.4c0.2-2,0.2-5.8,0.2-10.5V222.2z"/>
	<path class="st2" d="M118.1,238c0.1,3.7,0.7,5,1.7,5.3c0.8,0.3,1.7,0.3,2.5,0.3c0.5,0,0.8,0.1,0.8,0.4c0,0.4-0.4,0.5-1.1,0.5
		c-3.1,0-5-0.1-6-0.1c-0.4,0-2.7,0.1-5.2,0.1c-0.6,0-1.1,0-1.1-0.5c0-0.3,0.3-0.4,0.8-0.4c0.6,0,1.5,0,2.2-0.2
		c1.2-0.4,1.4-1.8,1.5-6l0.4-28.3c0-1,0.1-1.6,0.6-1.6c0.5,0,1,0.6,1.8,1.5c0.6,0.6,7.9,8.3,14.9,15.3c3.3,3.3,9.7,10.2,10.6,10.9
		h0.2l-0.5-21.6c0-2.9-0.5-3.8-1.6-4.3c-0.7-0.3-1.9-0.3-2.5-0.3c-0.6,0-0.8-0.1-0.8-0.4c0-0.4,0.5-0.4,1.2-0.4
		c2.5,0,4.8,0.1,5.8,0.1c0.5,0,2.4-0.1,4.7-0.1c0.6,0,1.1,0,1.1,0.4c0,0.3-0.3,0.4-0.9,0.4c-0.5,0-0.9,0-1.4,0.1
		c-1.3,0.4-1.7,1.4-1.8,4.1l-0.5,30.3c0,1.1-0.2,1.5-0.6,1.5c-0.5,0-1.1-0.5-1.6-1.1c-3-2.9-9.2-9.2-14.2-14.1
		c-5.2-5.2-10.6-11-11.4-12h-0.1L118.1,238z"/>
	<path class="st2" d="M166.9,230.6c0,4.6,0,8.2,0.2,10.2c0.1,1.4,0.4,2.4,1.9,2.6c0.7,0.1,1.7,0.2,2.4,0.2c0.6,0,0.8,0.1,0.8,0.4
		c0,0.3-0.3,0.5-1.1,0.5c-3,0-6-0.1-7.3-0.1c-1.2,0-4.3,0.1-6.1,0.1c-0.7,0-1-0.1-1-0.5c0-0.2,0.2-0.4,0.7-0.4
		c0.7,0,1.3-0.1,1.7-0.2c1-0.2,1.2-1.2,1.4-2.6c0.2-2,0.2-5.6,0.2-10.2v-8.4c0-7.3,0-8.6-0.1-10.2c-0.1-1.6-0.5-2.4-2.1-2.7
		c-0.4-0.1-1.2-0.1-1.9-0.1c-0.5,0-0.8-0.1-0.8-0.4c0-0.4,0.4-0.5,1.1-0.5c1.2,0,2.6,0,3.9,0c1.2,0,2.4,0.1,3,0.1
		c1.8,0,11.6,0,12.7,0c0.9,0,1.5,0,2-0.2c0.3-0.1,0.5-0.3,0.8-0.3c0.2,0,0.3,0.2,0.3,0.4c0,0.3-0.2,0.9-0.4,2.2
		c0,0.5-0.1,3.3-0.2,3.9c0,0.4-0.1,0.7-0.5,0.7c-0.3,0-0.4-0.2-0.5-0.8c0-0.4,0-1.2-0.3-1.8c-0.3-0.7-1.3-1.4-3.2-1.4l-7.4-0.1
		c-0.3,0-0.4,0.1-0.4,0.7v12c0,0.3,0,0.4,0.3,0.4l6.1,0c0.8,0,1.5,0,2.2,0c0.9,0,1.6-0.2,2.1-0.9c0.2-0.3,0.3-0.5,0.6-0.5
		c0.2,0,0.3,0.1,0.3,0.4c0,0.3-0.2,1.5-0.4,3c-0.1,1-0.2,3.2-0.2,3.5c0,0.4,0,0.9-0.5,0.9c-0.3,0-0.4-0.3-0.4-0.7
		c0-0.3-0.1-0.9-0.3-1.5c-0.2-0.7-1-1.5-2.4-1.7c-1.2-0.1-6.3-0.1-7.1-0.1c-0.2,0-0.3,0.1-0.3,0.4V230.6z"/>
	<path class="st2" d="M185.5,226.4c0-8.2,5.4-18.8,19.8-18.8c12,0,19.4,7,19.4,18c0,11-7.7,19.7-19.9,19.7
		C191.1,245.2,185.5,234.9,185.5,226.4z M218,227.3c0-10.8-6.2-17.4-14.1-17.4c-5.5,0-11.8,3.1-11.8,15c0,10,5.5,17.9,14.7,17.9
		C210.2,242.8,218,241.2,218,227.3z"/>
	<path class="st2" d="M234.8,222.2c0-7.3,0-8.6-0.1-10.2c-0.1-1.6-0.5-2.4-2.1-2.7c-0.4-0.1-1.2-0.1-1.9-0.1c-0.5,0-0.8-0.1-0.8-0.4
		c0-0.3,0.3-0.4,1.1-0.4c2.5,0,5.6,0.1,6.6,0.1c1.6,0,5.3-0.1,6.8-0.1c3,0,6.2,0.3,8.8,2.1c1.3,0.9,3.3,3.4,3.3,6.6
		c0,3.6-1.5,6.8-6.3,10.8c4.3,5.4,7.6,9.6,10.4,12.6c2.7,2.8,4.7,3.1,5.4,3.3c0.5,0.1,1,0.1,1.3,0.1c0.4,0,0.6,0.1,0.6,0.4
		c0,0.4-0.3,0.5-0.9,0.5h-4.6c-2.7,0-3.9-0.2-5.1-0.9c-2.1-1.1-3.9-3.4-6.6-7.1c-1.9-2.6-4.1-5.9-4.8-6.6c-0.2-0.3-0.5-0.3-0.9-0.3
		l-4.2-0.1c-0.2,0-0.4,0.1-0.4,0.4v0.7c0,4.5,0,8.3,0.2,10.3c0.1,1.4,0.4,2.4,1.9,2.6c0.7,0.1,1.8,0.2,2.4,0.2
		c0.4,0,0.6,0.1,0.6,0.4c0,0.3-0.3,0.5-1,0.5c-2.8,0-6.3-0.1-7.1-0.1c-0.9,0-3.9,0.1-5.9,0.1c-0.6,0-1-0.1-1-0.5
		c0-0.2,0.2-0.4,0.8-0.4c0.7,0,1.3-0.1,1.7-0.2c1-0.2,1.2-1.2,1.4-2.6c0.2-2,0.2-5.8,0.2-10.2V222.2z M240.4,226
		c0,0.5,0.1,0.7,0.4,0.9c1,0.3,2.4,0.5,3.6,0.5c1.9,0,2.5-0.2,3.4-0.8c1.4-1.1,2.8-3.3,2.8-7.2c0-6.8-4.5-8.8-7.3-8.8
		c-1.2,0-2.1,0-2.5,0.2c-0.3,0.1-0.4,0.3-0.4,0.7V226z"/>
	<path class="st2" d="M272.8,208.9c0.1-0.8,0.4-1.2,0.8-1.2c0.4,0,0.7,0.2,1.3,1.5l13.1,26.7l13.1-27c0.4-0.8,0.6-1.2,1.1-1.2
		c0.4,0,0.7,0.5,0.9,1.5l4.4,29.4c0.4,3,0.9,4.4,2.4,4.8c1.4,0.4,2.4,0.5,3,0.5c0.4,0,0.8,0,0.8,0.3c0,0.4-0.6,0.5-1.2,0.5
		c-1.2,0-7.8-0.1-9.7-0.2c-1.1-0.1-1.4-0.2-1.4-0.5c0-0.2,0.2-0.4,0.5-0.5c0.3-0.1,0.4-0.7,0.2-2.1l-2.9-20.9h-0.2l-10.5,21.4
		c-1.1,2.3-1.3,2.7-1.8,2.7c-0.4,0-0.9-1-1.7-2.4c-1.2-2.2-4.9-9.6-5.5-10.9c-0.4-1-3.3-6.7-5-10.3h-0.2l-2.5,18.7
		c-0.1,0.9-0.1,1.5-0.1,2.3c0,0.9,0.6,1.3,1.4,1.5c0.9,0.2,1.5,0.2,2,0.2c0.4,0,0.7,0.1,0.7,0.3c0,0.4-0.4,0.5-1.2,0.5
		c-2,0-4.2-0.1-5-0.1c-0.9,0-3.2,0.1-4.8,0.1c-0.5,0-0.9-0.1-0.9-0.5c0-0.2,0.3-0.3,0.8-0.3c0.4,0,0.7,0,1.4-0.1
		c1.3-0.3,1.7-2.2,2-3.8L272.8,208.9z"/>
	<path class="st2" d="M323.5,232.3c-0.2,0-0.3,0.1-0.4,0.4l-2.6,6.6c-0.5,1.2-0.7,2.4-0.7,2.9c0,0.9,0.4,1.5,1.9,1.5h0.7
		c0.6,0,0.7,0.1,0.7,0.4c0,0.4-0.3,0.5-0.8,0.5c-1.5,0-3.6-0.1-5.1-0.1c-0.5,0-3.2,0.1-5.7,0.1c-0.6,0-0.9-0.1-0.9-0.5
		c0-0.3,0.2-0.4,0.6-0.4c0.4,0,1.1,0,1.5-0.1c2.2-0.3,3.1-1.9,4.1-4.3l12-29.8c0.6-1.4,0.9-1.9,1.3-1.9c0.4,0,0.7,0.4,1.2,1.5
		c1.2,2.6,8.8,21.8,11.9,29.1c1.8,4.3,3.2,5,4.2,5.2c0.7,0.1,1.4,0.2,2,0.2c0.4,0,0.6,0,0.6,0.4c0,0.4-0.4,0.5-2.2,0.5
		c-1.7,0-5.2,0-9.1-0.1c-0.9,0-1.4,0-1.4-0.4c0-0.3,0.2-0.4,0.7-0.4c0.3-0.1,0.7-0.5,0.4-1.1l-3.8-9.9c-0.1-0.2-0.2-0.3-0.5-0.3
		H323.5z M333.3,229.9c0.2,0,0.3-0.1,0.2-0.3l-4.3-11.8c0-0.2-0.1-0.4-0.2-0.4c-0.1,0-0.2,0.2-0.3,0.4l-4.4,11.8
		c0,0.2,0,0.3,0.2,0.3H333.3z"/>
	<path class="st2" d="M358.4,211l-7.2,0.2c-2.8,0.1-3.9,0.3-4.7,1.4c-0.5,0.7-0.7,1.3-0.8,1.7c-0.1,0.4-0.2,0.6-0.5,0.6
		c-0.3,0-0.4-0.2-0.4-0.8c0-0.8,0.9-5.1,1-5.5c0.1-0.6,0.3-0.9,0.6-0.9c0.4,0,0.9,0.5,2.1,0.6c1.4,0.1,3.2,0.2,4.8,0.2h19
		c1.5,0,2.6-0.1,3.3-0.2c0.7-0.1,1.1-0.2,1.3-0.2c0.3,0,0.4,0.3,0.4,1c0,1-0.1,4.3-0.1,5.6c0,0.5-0.1,0.8-0.4,0.8
		c-0.4,0-0.5-0.2-0.5-1l0-0.5c-0.1-1.2-1.4-2.6-5.7-2.7l-6-0.1v19.7c0,4.4,0,8.2,0.2,10.3c0.1,1.3,0.4,2.4,1.9,2.6
		c0.7,0.1,1.7,0.2,2.4,0.2c0.5,0,0.8,0.1,0.8,0.4c0,0.3-0.4,0.5-0.9,0.5c-3.2,0-6.2-0.1-7.5-0.1c-1.1,0-4.1,0.1-6,0.1
		c-0.6,0-1-0.1-1-0.5c0-0.2,0.2-0.4,0.8-0.4c0.7,0,1.3-0.1,1.7-0.2c1-0.2,1.2-1.2,1.4-2.6c0.2-2,0.2-5.8,0.2-10.2V211z"/>
	<path class="st2" d="M386.1,222.2c0-7.3,0-8.6-0.1-10.2c-0.1-1.6-0.6-2.4-1.6-2.7c-0.5-0.1-1.2-0.2-1.7-0.2c-0.5,0-0.8-0.1-0.8-0.5
		c0-0.3,0.4-0.4,1.2-0.4c1.8,0,4.8,0.1,6.2,0.1c1.2,0,4-0.1,5.9-0.1c0.6,0,1,0.1,1,0.4c0,0.4-0.3,0.5-0.8,0.5c-0.5,0-0.9,0-1.4,0.1
		c-1.3,0.2-1.7,1.1-1.8,2.7c-0.1,1.5-0.1,2.9-0.1,10.2v8.4c0,4.7,0,8.4,0.2,10.5c0.1,1.3,0.5,2.2,1.9,2.4c0.7,0.1,1.7,0.2,2.4,0.2
		c0.5,0,0.8,0.1,0.8,0.4c0,0.3-0.4,0.5-0.9,0.5c-3.2,0-6.2-0.1-7.5-0.1c-1.1,0-4.1,0.1-6,0.1c-0.6,0-1-0.1-1-0.5
		c0-0.2,0.2-0.4,0.8-0.4c0.7,0,1.3-0.1,1.7-0.2c1-0.2,1.2-1,1.4-2.4c0.2-2,0.2-5.8,0.2-10.5V222.2z"/>
	<path class="st2" d="M408,240c-4.7-4.1-6-9.5-6-14.2c0-3.3,1-8.9,5.6-13.2c3.5-3.2,8-5.1,15.2-5.1c3,0,4.8,0.2,7,0.5
		c1.8,0.2,3.4,0.7,4.8,0.8c0.5,0,0.7,0.3,0.7,0.6c0,0.4-0.1,1-0.2,2.6c-0.1,1.6,0,4.2-0.1,5.2c0,0.7-0.1,1.1-0.6,1.1
		c-0.4,0-0.5-0.4-0.5-1.1c0-1.5-0.7-3.2-1.9-4.4c-1.6-1.7-5.3-3-9.7-3c-4.2,0-6.9,1.1-9,3c-3.5,3.2-4.4,7.8-4.4,12.4
		c0,11.4,8.7,17.1,15.1,17.1c4.3,0,6.9-0.5,8.8-2.7c0.8-0.9,1.4-2.3,1.6-3.2c0.1-0.8,0.2-1,0.6-1c0.3,0,0.4,0.3,0.4,0.7
		c0,0.6-0.6,4.8-1.1,6.4c-0.2,0.8-0.4,1.1-1.2,1.4c-1.9,0.8-5.6,1.1-8.6,1.1C417.9,245.2,412.4,243.8,408,240z"/>
	<path class="st2" d="M449.1,232.3c-0.2,0-0.3,0.1-0.4,0.4l-2.6,6.6c-0.5,1.2-0.7,2.4-0.7,2.9c0,0.9,0.4,1.5,1.9,1.5h0.7
		c0.6,0,0.7,0.1,0.7,0.4c0,0.4-0.3,0.5-0.8,0.5c-1.5,0-3.6-0.1-5.1-0.1c-0.5,0-3.2,0.1-5.7,0.1c-0.6,0-0.9-0.1-0.9-0.5
		c0-0.3,0.2-0.4,0.6-0.4c0.4,0,1.1,0,1.5-0.1c2.2-0.3,3.1-1.9,4.1-4.3l12-29.8c0.6-1.4,0.9-1.9,1.3-1.9c0.4,0,0.7,0.4,1.2,1.5
		c1.2,2.6,8.8,21.8,11.9,29.1c1.8,4.3,3.2,5,4.2,5.2c0.7,0.1,1.4,0.2,2,0.2c0.4,0,0.6,0,0.6,0.4c0,0.4-0.4,0.5-2.2,0.5
		c-1.7,0-5.2,0-9.1-0.1c-0.9,0-1.4,0-1.4-0.4c0-0.3,0.2-0.4,0.7-0.4c0.3-0.1,0.7-0.5,0.4-1.1l-3.8-9.9c-0.1-0.2-0.2-0.3-0.5-0.3
		H449.1z M458.9,229.9c0.2,0,0.3-0.1,0.2-0.3l-4.3-11.8c0-0.2-0.1-0.4-0.2-0.4c-0.1,0-0.2,0.2-0.3,0.4l-4.4,11.8
		c0,0.2,0,0.3,0.2,0.3H458.9z"/>
</g>
</svg>
